<svg id="instagram-logo-la" xmlns="http://www.w3.org/2000/svg" width="27" height="27" viewBox="0 0 27 27">
  <g id="post-instagram">
    <path id="Caminho_210" data-name="Caminho 210" d="M24.3,0H2.7A2.708,2.708,0,0,0,0,2.7V24.3A2.708,2.708,0,0,0,2.7,27H24.3A2.708,2.708,0,0,0,27,24.3V2.7A2.708,2.708,0,0,0,24.3,0ZM13.5,8.1a5.4,5.4,0,1,1-5.4,5.4A5.416,5.416,0,0,1,13.5,8.1ZM3.375,24.3a.638.638,0,0,1-.675-.675V12.15H5.535A4.593,4.593,0,0,0,5.4,13.5a8.1,8.1,0,0,0,16.2,0,4.593,4.593,0,0,0-.135-1.35H24.3V23.625a.638.638,0,0,1-.675.675ZM24.3,6.075a.638.638,0,0,1-.675.675h-2.7a.638.638,0,0,1-.675-.675v-2.7a.638.638,0,0,1,.675-.675h2.7a.638.638,0,0,1,.675.675Z" fill="#ffc20e"/>
  </g>
</svg>
