<svg id="linkedin-logo-la" xmlns="http://www.w3.org/2000/svg" width="27" height="27" viewBox="0 0 27 27">
  <g id="post-linkedin">
    <path id="Caminho_211" data-name="Caminho 211" d="M24.3,0H2.7A2.708,2.708,0,0,0,0,2.7V24.3A2.708,2.708,0,0,0,2.7,27H24.3A2.708,2.708,0,0,0,27,24.3V2.7A2.708,2.708,0,0,0,24.3,0ZM8.1,22.95H4.05V10.8H8.1ZM6.075,8.5A2.43,2.43,0,1,1,8.5,6.075,2.42,2.42,0,0,1,6.075,8.5ZM22.95,22.95H18.9V15.8a2.025,2.025,0,0,0-4.05,0V22.95H10.8V10.8h4.05v1.62a4.361,4.361,0,0,1,3.375-1.89,4.783,4.783,0,0,1,4.725,4.725Z" fill="#ffc20e"/>
  </g>
</svg>
