<svg xmlns="http://www.w3.org/2000/svg" width="22.991" height="18.064" viewBox="0 0 22.991 18.064">
  <g id="mail" transform="translate(0 -54.82)">
    <g id="Agrupar_89" data-name="Agrupar 89" transform="translate(0 54.82)">
      <path id="Caminho_204" data-name="Caminho 204" d="M2.207,60.388q.436.308,2.63,1.828T8.2,64.557q.128.09.545.391t.693.488q.276.186.667.417a3.872,3.872,0,0,0,.738.346,2.033,2.033,0,0,0,.641.115h.026a2.035,2.035,0,0,0,.642-.115,3.875,3.875,0,0,0,.738-.346q.391-.231.667-.417t.693-.488q.417-.3.545-.391l6-4.17a6.1,6.1,0,0,0,1.565-1.578,3.388,3.388,0,0,0,.629-1.937,2.07,2.07,0,0,0-2.053-2.053H2.053a1.832,1.832,0,0,0-1.52.667A2.59,2.59,0,0,0,0,57.155a3,3,0,0,0,.706,1.751A6.368,6.368,0,0,0,2.207,60.388Z" transform="translate(0 -54.82)" fill="#ffc20e"/>
      <path id="Caminho_205" data-name="Caminho 205" d="M21.708,185.553q-4.208,2.848-6.389,4.426-.731.539-1.187.84a7.324,7.324,0,0,1-1.212.616,3.692,3.692,0,0,1-1.411.314h-.026a3.693,3.693,0,0,1-1.411-.314,7.327,7.327,0,0,1-1.212-.616q-.455-.3-1.187-.84-1.732-1.27-6.376-4.426A6.8,6.8,0,0,1,0,184.437v10.186a1.976,1.976,0,0,0,.6,1.45,1.976,1.976,0,0,0,1.45.6H20.938a2.059,2.059,0,0,0,2.053-2.053V184.437A7.075,7.075,0,0,1,21.708,185.553Z" transform="translate(0 -178.612)" fill="#ffc20e"/>
    </g>
  </g>
</svg>
